#!OML:ASF F:\VICON\USERDATA\INSTALL\rory3\rory3.ASF
:FULLY-SPECIFIED
:DEGREES
124
root 0.14485792408739068 17.466386581757476 43.53242285383544 0.44886064241399115 5.636012714514053 1.087790036687903
lfemur -28.569934429872863 -0.8373887348477076 -24.33141780611495
ltibia 37.946335514123035
lfoot -16.263221005196648 -0.1499338514234223
ltoes 0.21398805673829635
rfemur -24.267739639193234 -8.804960475440659 20.072980090054592
rtibia 149.8469920747006
rfoot 2.377215679581378 -20.688927309140045
rtoes 11.50551090035016
lowerback nan 0.7326005040253835 -1.1300728446653707
upperback 0.2902373663402651 1.713766149450763 -1.0826561097035607
thorax -10.529864673931737 0.6372248319786862 0.16586118684495654
lowerneck -22.530422496231978 -4.444834262812435 -1.376430843438376
upperneck 10.24041477108457 -6.1523421092587665 5.218517561401277
head 7.374623186091491 -2.7800112686497593 1.2137057012046675
lclavicle -3.501571894810268e-14 -2.3054100825503886e-14
lhumerus -53.2590770257407 -4.783450200657656 93.56746985790735
lradius 130.40207011025905
lwrist 33.24864504843429
lhand -23.870144443503687 -1.3477302843507626
lfingers nan
lthumb 2.402250092825615 28.3612110392975
rclavicle -3.2763047790483615e-14 -2.1369952787219728e-14
rhumerus -50.18711409187115 12.455526536887113 -104.29638179008104
rradius 99.85050627860439
rwrist -3.3508192311463674
rhand -21.06674511178874 nan
rfingers nan
rthumb 5.204360590747046 10.974936554471395
125
root 0.14877800531004104 17.392410752180695 43.98675516347522 0.49563443538293184 5.719977712364317 1.87881797034244
lfemur -26.94545434113884 -1.577975537890986 -25.40180047952378
ltibia 38.876676989979984
lfoot -18.179429748154874 2.1794096576884376
ltoes -3.1646868748569847
rfemur -26.160397795708512 -9.564504072535472 18.136908310138665
rtibia 153.44530271745583
rfoot 1.8301860117378683 -18.786279843727396
rtoes 8.996483889933781
lowerback nan 0.6000077756090412 -2.1513013339491383
upperback 0.5030618036973129 1.336267175337952 -1.3237156066229339
thorax -10.544796650548488 0.49203954826363416 0.7020083415719907
lowerneck -22.943207404387838 -4.375961877480691 -1.3038713084489864
upperneck 10.219383695484051 -6.12786489297898 5.1851994086436
head 7.402793236511152 -2.747996872936412 1.2050456448449685
lclavicle -6.964229694862582e-14 3.416931505623163e-17
lhumerus -50.80155012250154 -5.79746096659486 93.7807253427344
lradius 130.3643471098825
lwrist 34.718730023227856
lhand -24.409081668192073 -0.11423801291889313
lfingers nan
lthumb 1.845740170445927 29.534302262204626
rclavicle -6.67256133377102e-14 1.468171827282619e-15
rhumerus -50.85975539029121 11.669563844576746 -104.21020651952554
rradius 98.76028749607254
rwrist -3.198461787041296
rhand -21.159891527483037 nan
rfingers nan
rthumb 5.153313460019297 10.956550312059578
126
root 0.1340370629785253 17.331367911599216 44.33507705173565 0.7677408595876818 5.186545418063765 2.3701560510411985
lfemur -25.327195352681557 -2.033441366146142 -26.16530610539842
ltibia 39.507824029459364
lfoot -19.638294281356497 3.8234588077607414
ltoes -3.6711799684563573
rfemur -28.4176176119513 -9.835666124938324 16.62077927979709
rtibia 156.6199667925781
rfoot 1.3595949915297645 -16.96911666340083
rtoes 12.587163209827274
lowerback nan 0.7304018256686771 -3.2667846118486525
upperback 0.557592348442489 1.2830725973759547 -1.4276884325765324
thorax -10.609558538907429 0.5002029921612181 1.2625452338311332
lowerneck -22.94138987137203 -4.2571662047958485 -1.2482649834204178
upperneck 9.904980780999974 -6.019753221114251 5.172730379472565
head 7.294956554557246 -2.6921105811495867 1.2170264548450558
lclavicle 2.3423018840517895e-15 -4.171625638766936e-14
lhumerus -48.30594691199751 -6.857446782463614 93.89446908228742
lradius 130.14330259201225
lwrist 36.00859528641431
lhand -24.53577306070622 0.7887840532688841
lfingers nan
lthumb 1.689154250363303 30.38444590595477
rclavicle 5.153209024865048e-15 -4.0540479385081756e-14
rhumerus -51.612385491732105 10.86062081554989 -104.03040613067425
rradius 97.88898097790283
rwrist -2.919000773820918
rhand -21.10582395508224 nan
rfingers nan
rthumb 5.23644262325148 11.097479502928136
127
root 0.10414642052029832 17.293433323648518 44.51105971170787 1.070365615095485 4.008048224424751 2.189271560289421
lfemur -23.696201854607203 -1.7493910962336106 -26.297904029504615
ltibia 39.88476387734337
lfoot -20.89756891882631 4.754183494630184
ltoes -2.993725619026926
rfemur -31.032826369672772 -9.386404116166828 16.35442704658395
rtibia 158.98992365317895
rfoot 0.9169923236500139 -15.623598197692747
rtoes 12.617702326009056
lowerback nan 1.0964547116797336 -3.919076428492842
upperback 0.46258262349985513 1.581509945992137 -1.341478642865911
thorax -10.691275097030086 0.6753207551401249 1.6066183863333316
lowerneck -22.619482899399397 -4.1627923729191885 -0.9295910184595215
upperneck 9.507709455658606 -5.955976739053634 5.027694597556762
head 7.101711935649673 -2.6702231471130227 1.1494805407137045
lclavicle -6.945230804889665e-14 6.156869461851664e-16
lhumerus -46.13046636460316 -7.745211112850236 93.73192459933718
lradius 129.6165808233057
lwrist 35.836112965484055
lhand -23.234284234157755 -1.0639820812787375
lfingers nan
lthumb 2.886658246706151 28.45858454403987
rclavicle -6.503534848099242e-14 2.534749216931613e-15
rhumerus -52.45945048568025 9.82212743127683 -103.87172997621653
rradius 97.29474546905892
rwrist -1.487133285175947
rhand -21.04609923485555 nan
rfingers nan
rthumb 5.330035761410978 11.059727390172275
128
root 0.09596693560770325 17.26160058334317 44.63664434862172 1.3061784223589221 3.5061883220861088 1.9326937603416345
lfemur -22.006742113471766 -1.4025907570804323 -26.338831215921857
ltibia 40.02480418394547
lfoot -22.042373837600543 6.058302003574853
ltoes -5.826604468624956
rfemur -33.67596092686581 -9.326658330889328 16.370133713549066
rtibia 160.65044225878515
rfoot 0.3630726274358427 -14.234305226294918
rtoes 11.481630320201106
lowerback nan 1.2403153806986604 -4.129069326620977
upperback 0.360619633606013 1.6487424807938025 -1.1705205964541607
thorax -10.682649226198455 0.7400110343472046 1.8495070141513286
lowerneck -22.372783409599574 -4.115660687061868 -0.9024688383678079
upperneck 9.270283492892647 -5.9130475871089665 4.988556493744239
head 6.970845997834311 -2.644282545470142 1.1511173720440784
lclavicle 1.4569254237007313e-15 1.9188348226211856e-15
lhumerus -44.02532619261528 -8.623952719198435 93.8046539591672
lradius 129.4653241330496
lwrist 35.85217478891057
lhand -22.99012749473537 -1.7812801710706772
lfingers nan
lthumb 3.072050215507583 27.678446871123093
rclavicle 6.062731934586193e-15 3.2681810518813828e-15
rhumerus -53.46718717396659 8.886083726801989 -103.5067256757297
rradius 96.95207784610062
rwrist 0.15452238137401864
rhand -21.14241947966605 nan
rfingers nan
rthumb 5.275034300307815 11.089349941645857
129
root 0.1116962887011872 17.235149111314204 44.7325081570758 1.5153886744081349 3.9487357026447976 1.571787349111827
lfemur -20.29237572540783 -1.6063298875812193 -26.168284356154924
ltibia 39.8993178261515
lfoot -22.915057615579553 6.852108960725029
ltoes -7.3729313229840905
rfemur -36.08848922116023 -9.92056815044858 16.75741779016984
rtibia 161.57088854692023
rfoot -0.4527908209111118 -12.755501629373127
rtoes 10.880878557801356
lowerback nan 0.9920363702510742 -3.693657172583134
upperback 0.3381731477966874 1.3443533680417865 -0.9425006092949484
thorax -10.536028325803075 0.5997529004769322 1.9594934255868466
lowerneck -22.50425286949135 -3.9805947181283283 -1.0613140523161873
upperneck 9.375241947288497 -5.756892847528007 5.061289212724169
head 6.978993888510398 -2.5279141996553887 1.2239012545872656
lclavicle 6.41894927025221e-14 -4.2696335747845674e-14
lhumerus -41.81908248277416 -9.466922031522497 93.81952645194129
lradius 129.1856493692853
lwrist 35.84620897650081
lhand -22.211339304053425 -2.2445951696765816
lfingers nan
lthumb 3.7797142428700568 27.156286550374585
rclavicle 6.850762999618131e-14 -4.196997265901984e-14
rhumerus -54.42640421652966 8.222916270295975 -103.05889331531404
rradius 96.7397950342991
rwrist 0.7570985612249785
rhand -21.35922157156226 nan
rfingers nan
rthumb 5.099234499742835 11.79767522051547
130
root 0.122517413341652 17.23527122084697 45.11089393125436 1.6322174002403291 3.92880887255994 1.3477336076792317
lfemur -18.300970083528806 -1.481407001375298 -26.129661697254612
ltibia 39.41125760550397
lfoot -23.49596167047476 6.851980564503173
ltoes -6.2144590242495115
rfemur -38.304226553375855 -10.195616671930003 17.0782831853545
rtibia 161.84630725506406
rfoot -1.0953629295515759 -10.686499204204853
rtoes 9.672022370005585
lowerback nan 0.837450306205328 -3.590492980996229
upperback 0.4269106664394027 1.1165840229978405 -0.7241883223019425
thorax -10.35908891776535 0.5160204638574797 2.224960344561273
lowerneck -22.797265738602853 -3.8184138789136908 -1.0935591278144563
upperneck 9.460632976450668 -5.56985524043664 5.036917892994643
head 6.994006553194978 -2.407114099760221 1.2488089442005157
lclavicle 2.959921632547397e-14 -2.6583130083213113e-14
lhumerus -39.625432261719936 -9.938675274546348 93.64420780776146
lradius 129.03278928709994
lwrist 35.055446241244795
lhand -22.72619544909464 -0.9154240331013026
lfingers nan
lthumb 3.2639966082859466 28.44585845385928
rclavicle 3.323481555759386e-14 -2.5893251712485594e-14
rhumerus -55.29677477550277 7.859967743361246 -102.71065171297859
rradius 96.99113981063786
rwrist 0.3958618240679215
rhand -21.543606257900635 nan
rfingers nan
rthumb 4.906481469485263 11.274121263992106
